<?xml version="1.0" encoding="utf-8" ?><svg xmlns="http://www.w3.org/2000/svg" xmlns:xlink="http://www.w3.org/1999/xlink" width="4096" height="4096" viewBox="0 0 4096 4096"><path fill="#081321" transform="scale(4 4)" d="M0 0L1024 0L1024 1024L0 1024L0 0Z"/><defs><linearGradient id="gradient_0" gradientUnits="userSpaceOnUse" x1="430.73468" y1="259.05075" x2="589.06299" y2="398.2861"><stop offset="0" stop-color="#47DEF5"/><stop offset="1" stop-color="#0592FD"/></linearGradient></defs><path fill="url(#gradient_0)" transform="scale(4 4)" d="M549.049 291.725C542.437 287.747 534.845 282.723 527.69 279.938C521.232 277.425 513.177 279.397 507.166 282.469C497.599 287.361 488.438 293.438 479.212 298.966C470.45 304.343 456.668 311.146 449.422 318.042C445.409 321.878 442.414 326.654 440.709 331.939C435.239 348.713 440.815 367.874 456.15 377.298C482.933 393.759 510.178 409.363 536.858 426.011C551.908 436.407 561.631 436.139 541.57 447.68C518.238 461.102 516.926 454.525 495.639 442.068C473.087 428.871 448.942 414.606 426.185 401.35C418.542 396.897 410.968 392.303 404.641 385.839C397.585 378.571 392.524 369.606 389.948 359.81C385.597 343.384 386.037 316.043 395.267 300.964C403.212 287.984 417.005 281.766 429.855 274.065L468.447 250.809C481.999 242.751 496.058 231.115 511.115 226.906C527.601 222.298 543.576 232.327 556.633 241.064C562.322 244.87 569.264 248.631 575.331 252.189L611.394 274.352C620.922 280.144 631.344 286.031 639.762 293.069C646.775 298.932 648.213 314.15 643.219 321.421C634.503 334.112 620.529 334.494 608.211 327.371C599.624 322.406 591.515 317.972 583.204 312.562C571.879 305.569 560.219 298.949 549.049 291.725Z"/><defs><linearGradient id="gradient_1" gradientUnits="userSpaceOnUse" x1="578.65619" y1="536.52124" x2="481.50696" y2="402.75653"><stop offset="0" stop-color="#026FF7"/><stop offset="1" stop-color="#1EB7FC"/></linearGradient></defs><path fill="url(#gradient_1)" transform="scale(4 4)" d="M570.986 364.156C592.177 376.984 631.813 395.106 641.186 418.325C650.66 441.792 651.271 487.31 626.761 503.094C597.491 521.933 566.886 539.489 536.973 557.291C513.465 571.281 485.078 547.436 464.793 535.269L427.764 512.988C420.36 508.594 412.636 503.983 405.465 499.876C394.155 493.399 387.22 477.23 395.76 465.909C410.526 446.338 430.527 460.597 444.941 469.23L483.85 492.725C492.497 497.989 500.719 503.285 510.347 507.714C526.331 515.068 544.152 498.975 557.798 491.183C568.524 485.058 582.039 478.053 590.06 469.005C601.756 453.53 598.773 426.887 581.903 416.114C570.336 408.729 557.898 400.966 545.974 394.1C548.332 393.135 555.53 385.931 557.748 383.572C562.635 378.374 568.757 372.903 572.141 366.651C572.378 366.213 571.26 364.631 570.986 364.156Z"/><path fill="#27C2F8" transform="scale(4 4)" d="M545.974 394.1C527.066 383.947 507.941 370.33 489.175 359.55C487.441 358.554 484.283 355.684 483.385 353.955C484.055 348.02 507.873 336.434 513.988 334.431C521.002 332.134 535.654 342.354 541.965 346.189C551.706 352.068 561.38 358.058 570.986 364.156C571.26 364.631 572.378 366.213 572.141 366.651C568.757 372.903 562.635 378.374 557.748 383.572C555.53 385.931 548.332 393.135 545.974 394.1Z"/><defs><linearGradient id="gradient_2" gradientUnits="userSpaceOnUse" x1="744.15631" y1="375.72702" x2="757.85529" y2="426.49191"><stop offset="0" stop-color="#24C7F7"/><stop offset="1" stop-color="#1CB4FC"/></linearGradient></defs><path fill="url(#gradient_2)" transform="scale(4 4)" d="M797.265 377.115C801.698 376.642 805.558 376.582 809.742 378.319C814.321 380.225 817.916 383.927 819.686 388.56C821.593 393.527 821.314 399.492 819.141 404.327C817.172 408.806 813.444 412.276 808.836 413.919C797.463 418.029 787.051 411.913 783.473 400.683C761.938 401.3 738.445 400.923 716.75 400.972C710.42 400.951 683.367 402.556 679.647 399.349C678.47 398.335 678.263 397.437 678.048 396.005C678.92 392.264 681.672 391.706 685.133 391.559C695.758 391.111 706.475 391.464 717.12 391.482L783.104 391.502C785.774 383.273 789.225 379.766 797.265 377.115Z"/><path fill="#081321" transform="scale(4 4)" d="M799.692 384.688C805.91 383.405 811.988 387.414 813.256 393.635C814.524 399.857 810.501 405.925 804.277 407.178C798.073 408.428 792.03 404.42 790.766 398.22C789.502 392.02 793.495 385.967 799.692 384.688Z"/><path fill="#27C2F8" transform="scale(4 4)" d="M231.384 377.064C243.959 376.222 249.393 379.754 253.979 391.53L320.175 391.41C331.604 391.43 343.653 391.266 355.07 392.153C357.319 392.328 357.537 392.703 358.976 393.995C360.135 397.555 357.498 399.191 354.814 400.972C347.19 401.261 337.994 401.008 330.25 400.999C305.051 401.121 279.26 400.674 253.998 400.576C253.795 401.123 253.586 401.668 253.369 402.209C246.071 420.635 222.513 418.497 216.832 401.704C215.278 396.983 215.655 391.839 217.881 387.396C220.799 381.688 225.59 378.965 231.384 377.064Z"/><path fill="#081321" transform="scale(4 4)" d="M233.52 384.643C239.634 383.735 245.349 387.891 246.371 393.987C247.392 400.083 243.344 405.874 237.268 407.009C233.236 407.762 229.111 406.279 226.482 403.131C223.852 399.983 223.128 395.66 224.587 391.826C226.047 387.993 229.463 385.246 233.52 384.643Z"/><path fill="#087CF6" transform="scale(4 4)" d="M759.958 429.606C793.97 427.731 787.141 476.098 755.75 466.551C750.076 464.825 746.897 458.54 744.883 453.45L700.375 453.528C690.017 453.448 675.548 455.386 665.865 452.287C663.383 451.493 662.373 444.481 669.911 444.221C678.855 443.913 687.708 444.049 696.664 444.085L744.411 444.02C747.956 435.519 750.865 431.925 759.958 429.606Z"/><path fill="#081321" transform="scale(4 4)" d="M761.162 437.688C767.205 436.411 773.157 440.211 774.541 446.231C775.926 452.25 772.232 458.269 766.238 459.76C762.265 460.748 758.067 459.515 755.26 456.535C752.453 453.555 751.472 449.292 752.695 445.385C753.919 441.478 757.156 438.535 761.162 437.688Z"/><path fill="#27C2F8" transform="scale(4 4)" d="M271.985 429.612C282.581 429.066 289.208 434.348 292.581 444.076L342.722 444.103C349.082 444.109 369.189 443.046 373.378 446.276C378.668 456.716 348.771 453.514 343.331 453.394L292.486 453.443C292.111 454.343 291.702 455.228 291.261 456.097C277.78 482.17 244.033 460.592 257.497 437.981C260.364 433.167 266.64 430.653 271.985 429.612Z"/><path fill="#081321" transform="scale(4 4)" d="M271.715 437.632C277.829 436.536 283.679 440.592 284.796 446.702C285.914 452.813 281.879 458.676 275.772 459.815C269.636 460.959 263.737 456.9 262.614 450.759C261.491 444.619 265.571 438.734 271.715 437.632Z"/><path fill="#FDFDFD" transform="scale(4 4)" d="M855.395 598.542C869.141 598.019 885.109 598.436 899.024 598.522L899.027 606.554L874.208 606.428C854.888 606.302 851.789 603.893 852.029 624.205C867.096 624.162 882.163 624.226 897.23 624.395L897.186 632.065L857.566 632.126L852.009 632.208C851.735 653.238 853.953 651.129 874.653 651.054L899.037 650.982L899.043 659.209C886.808 659.346 860.17 660.744 849.805 656.893C839.273 652.981 842.225 614.601 844.942 605.532C845.988 602.04 852.001 599.552 855.395 598.542Z"/><path fill="#FDFDFD" transform="scale(4 4)" d="M153.261 598.619C167.508 597.953 183.416 598.393 197.767 598.518L197.64 606.504C183.232 606.629 168.606 606.152 154.263 607.062C149.861 607.909 149.073 616.077 150.243 619.312C152.809 626.402 166.001 624.182 172.002 624.092C179.717 623.976 197.75 622.755 199.346 633.661C201.238 646.595 200.864 655.97 186.121 658.915C172.09 659.419 155.705 659.014 141.495 659.011L141.485 650.94C153.964 651.082 166.445 651.019 178.922 650.751C181.878 650.661 188.63 651.406 189.742 648.254C201.121 615.981 147.821 645.171 141.703 623.164C138.555 611.839 141.302 602.431 153.261 598.619Z"/><path fill="#FDFDFD" transform="scale(4 4)" d="M427.513 598.496L435.988 598.507L436.041 636.544C436.046 643.454 436.271 652.315 435.808 659.028L426.609 659.042C412.605 644.421 395.836 624.479 382.617 608.936L382.466 659.058L373.955 659.046L373.935 598.522L383.814 598.523C389.438 604.339 396.255 612.675 401.725 618.899C410.219 628.482 418.801 637.987 427.471 647.412L427.513 598.496Z"/><path fill="#FDFDFD" transform="scale(4 4)" d="M740.607 598.586C754.022 597.898 771.911 598.427 785.66 598.464L785.564 606.533L756.56 606.564C747.658 606.619 734.055 604.758 737.733 618.545C741.461 632.522 785.22 614.089 787.485 634.726C788.87 647.351 787.62 656.092 774.059 659.009L729.574 659.012L729.51 650.969C740.329 650.969 764.935 651.628 776.534 649.975C777.421 649.553 778.452 647.734 778.652 646.932C784.74 622.111 750.076 636.249 737.961 631.258C729.675 627.844 727.008 618.09 729.458 609.928C731.351 603.625 734.783 601.054 740.607 598.586Z"/><path fill="#FDFDFD" transform="scale(4 4)" d="M615.995 598.501L642.009 598.457C658.934 598.381 674.229 595.971 674.558 618.134C674.889 640.407 660.612 639.487 643.259 639.18C637.16 639.073 630.607 639.114 624.521 639.078L624.486 659.002L616.014 659.029L616.007 631.002C625.422 631.126 654.871 632.772 661.958 629.309C663.648 628.484 664.515 626.879 664.957 625.131C665.808 621.765 665.834 612.523 663.565 609.771C659.135 604.399 624.18 606.456 615.997 606.508L615.995 598.501Z"/><path fill="#FDFDFD" transform="scale(4 4)" d="M520.88 598.47L530.096 598.457C534.565 607.689 539.424 616.346 544.143 625.407C550.009 636.669 555.701 647.811 561.775 658.972L551.779 659.008C543.518 643.098 535.364 627.133 527.319 611.112C526.585 609.798 526.5 609.239 525.158 608.661C522.491 612.68 518.024 622.051 515.683 626.621L498.973 659.006L489.238 658.939C490.711 655.949 492.387 652.839 494.001 649.91C503.327 632.985 511.613 615.404 520.88 598.47Z"/><path fill="#FDFDFD" transform="scale(4 4)" d="M254.068 598.507L264.667 598.497C270.516 606.713 281.096 621.182 287.516 628.362C295.183 619.224 303.283 608.098 310.981 598.541L321.426 598.581C318.579 602.928 311.532 611.215 308.114 615.473C302.729 622.429 297.156 629.201 291.963 636.309L291.766 659.051L282.947 659.087L282.832 636.257C275.33 627.112 260.021 607.722 254.068 598.507Z"/><path fill="#0CA1E9" transform="scale(4 4)" d="M234.036 693.091C246.295 691.566 249.915 697.741 246.933 709.902C246.317 712.417 245.164 713.519 242.885 714.663C241.532 714.842 238.38 715.195 237.175 714.964C226.183 712.856 226.237 698.9 234.036 693.091Z"/><path fill="#081321" transform="scale(4 4)" d="M236.311 695.058C240.025 694.915 242.74 695.099 244.353 698.963C246.209 703.41 245.974 710.269 241.096 712.537C237.337 712.708 234.297 712.914 232.459 708.873C230.305 704.139 231.152 697.453 236.311 695.058Z"/><path fill="#0CA1E9" transform="scale(4 4)" d="M514.603 752.325C505.231 751.772 488.985 752.562 478.843 752.467L385.749 751.617C379.167 751.539 352.626 752.166 347.824 750.478C349.527 750.113 363.413 750.733 366.425 750.704L473.145 750.531C481.542 750.539 489.939 750.501 498.336 750.418C502.076 750.391 510.656 750.171 514.063 750.744L514.603 752.325Z"/><path fill="#0CA1E9" transform="scale(4 4)" d="M349.004 692.984C354.066 692.826 361.869 691.999 365.321 696.347C368.04 699.772 364.248 704.195 361.569 706.19C362.675 708.258 365.124 712.155 365.28 714.089L364.621 714.625L363.284 714.431L362.586 713.42C361.167 711.291 359.467 708.048 358.172 705.726L351.919 705.917C351.96 708.378 352.304 712.256 351.023 714.199L349.926 714.307C348.465 712.31 349.019 696.902 349.004 692.984Z"/><path fill="#081321" transform="scale(4 4)" d="M351.949 694.985C357.812 695.021 365.122 694.293 362.525 702.721C359.584 704.061 355.276 703.624 351.972 703.558L351.949 694.985Z"/><path fill="#0CA1E9" transform="scale(4 4)" d="M271.273 692.997C275.362 692.914 282.005 692.379 285.322 694.834C292.317 700.012 286.613 705.457 280.307 706.252L273.902 706.278C273.896 708.449 274.115 712.26 273.262 714.032L272.405 714.021C270.696 712.259 271.285 696.695 271.273 692.997Z"/><path fill="#081321" transform="scale(4 4)" d="M273.931 695.122C279.399 695.169 288.488 694.578 284.288 702.972C281.025 704.625 277.623 704.145 273.93 704.054L273.931 695.122Z"/><path fill="#087CF6" transform="scale(4 4)" d="M795.962 692.558C800.986 693.664 804.413 703.749 806.372 708.28C807.77 705.078 811.63 694.971 814.59 693.766L815.48 694.225C817.211 697.554 817.623 711.892 815.085 714.482L814.463 713.913C813.839 710.378 813.901 706.492 813.845 702.875C813.81 701.631 813.906 702.024 813.444 700.945C811.561 701.571 807.97 709.868 806.484 712.505C803.995 708.701 800.891 702.403 798.661 698.218C798.682 702.436 799.556 711.946 797.252 714.656L796.587 714.479C795.37 711.151 795.908 697.023 795.962 692.558Z"/><path fill="#27C2F8" transform="scale(4 4)" d="M396.754 692.247C400.551 694.643 406.254 711.397 407.409 716.258C404.502 713.398 403.458 709.801 399.625 709.495L392.376 709.491C391.659 711.835 391.603 713.982 389.094 714.409L388.373 713.661C389.28 707.959 394.292 697.771 396.754 692.247Z"/><path fill="#081321" transform="scale(4 4)" d="M397.199 697.72C399.093 699.296 401.339 704.312 400.45 706.768L398.599 707.038C396.268 707.149 394.896 707.772 393.933 705.566C394.041 703.279 396.078 699.927 397.199 697.72Z"/><path fill="#17D2F3" transform="scale(4 4)" d="M494.457 692.675C497.663 694.724 504.357 706.074 507.481 710.194C507.446 706.575 507.157 695.886 508.359 693.197C510.932 695.558 510.393 709.586 509.777 713.096C509.618 714.004 508.913 714.062 508.123 714.49C504.008 711.195 498.949 702.341 495.991 697.639C495.963 700.732 496.375 713.272 494.042 714.673C491.255 711.062 492.618 696.881 494.457 692.675Z"/><path fill="#27C2F8" transform="scale(4 4)" d="M523.421 750.204C549.609 751.308 576.543 749.954 602.783 750.546C606.756 750.636 611.536 750.709 615.485 750.515L618.995 751.145L619.493 751.934L558.203 752.237C552.061 752.261 533.227 752.628 527.684 751.85C526.261 751.704 525.336 751.606 523.915 751.334L523.421 750.204Z"/><path fill="#17D2F3" transform="scale(4 4)" d="M540.663 692.545C543.622 692.481 547.803 693.453 549.883 695.656C547.984 702.176 536.199 685.761 536.743 704.695C536.996 713.538 541.855 715.505 548.545 710.177C549.323 709.557 548.775 707.99 548.547 707.22C547.327 705.811 546.666 705.817 544.756 705.254L544.103 705.068L543.445 704.178L543.593 703.42C545.522 702.696 548.891 703.044 551.088 703.118C551.111 704.696 551.317 709.264 550.759 710.503C547.327 718.129 536.363 716.921 534.289 708.921C533.327 705.213 533.43 700.38 534.694 696.771C535.553 694.32 538.489 693.294 540.663 692.545Z"/><path fill="#27C2F8" transform="scale(4 4)" d="M608.876 693.062C611.822 692.76 619.041 692.457 620.983 694.912L621.294 694.828C617.906 696.055 607.013 694.619 607.577 699.073C609.664 701.538 612.058 702.299 615.242 702.705C623.547 703.763 624.834 711.24 617.163 715.004C613.162 715.25 608.743 715.242 605.246 713.146L605.146 712.485C609.624 711 618.587 714.069 619.968 708.747C617.786 704.465 594.995 703.272 608.876 693.062Z"/><path fill="#087CF6" transform="scale(4 4)" d="M685.293 693.067C688.145 692.724 694.052 692.44 695.994 695.065C692.317 697.001 686.438 693.473 683.602 698.501C683.838 704.698 701.209 700.606 697.437 711.053C696.602 713.368 694.06 714.275 691.971 714.942C689.119 714.969 682.582 715.313 681.083 712.374C685.877 710.097 695.102 715.033 694.953 708.265C694.839 703.126 678.538 706.651 681.032 697.736C681.744 695.19 683.161 694.354 685.293 693.067Z"/><path fill="#087CF6" transform="scale(4 4)" d="M757.866 692.995C761.329 692.898 769.5 692.377 772.301 694.391C770.1 696.064 763.767 695.559 760.724 695.502L760.63 702.576C763.371 702.522 766.656 702.131 768.971 703.483L768.715 704.203C766.077 705.306 763.576 705.018 760.665 705.004L760.688 712.426C763.282 712.38 770.258 711.993 772.212 713.621C769.429 715.306 761.482 714.986 757.944 714.995L757.866 692.995Z"/><path fill="#0CA1E9" transform="scale(4 4)" d="M310.763 692.959C313.861 692.916 322.568 692.4 324.637 694.297C322.062 695.912 316.658 695.46 313.528 695.415L313.515 702.692C317.391 702.62 318.982 702.698 322.822 703.199L322.792 703.615C318.47 705.128 318.39 704.303 314.474 704.936L313.576 705.088L313.591 712.638C316.731 712.556 321.747 712.216 324.533 713.653C322.08 715.341 314.147 715.06 310.882 715.054L310.763 692.959Z"/><path fill="#17D2F3" transform="scale(4 4)" d="M410.131 813.98C418.717 813.785 423.251 816.58 418.942 825.744C416.069 827.444 413.568 827.039 410.255 826.984C410.097 822.814 410.162 818.188 410.131 813.98Z"/><path fill="#081321" transform="scale(4 4)" d="M411.999 815.383C419.103 815.396 419.752 818.505 417.878 824.66C415.798 825.467 414.705 825.958 412.66 824.866C411.362 822.573 411.909 818.22 411.999 815.383Z"/><path fill="#17D2F3" transform="scale(4 4)" d="M570.39 784.951C572.953 784.994 574.597 784.967 576.544 786.911C577.685 788.046 578.321 789.592 578.31 791.201C578.303 794.159 577.106 795.779 575.152 797.77C566.655 799.41 565.039 790.343 570.39 784.951Z"/><path fill="#081321" transform="scale(4 4)" d="M570.991 786.369C577.608 786.519 577.899 792.225 574.46 796.505C567.861 796.856 567.744 790.542 570.991 786.369Z"/><path fill="#FDFDFD" transform="scale(4 4)" d="M521.082 813.991C523.496 813.91 525.155 813.832 527.04 815.637C528.271 816.832 528.962 818.478 528.952 820.194C528.949 823.169 527.863 824.92 525.837 826.88C517.378 827.642 515.85 819.334 521.082 813.991Z"/><path fill="#081321" transform="scale(4 4)" d="M521.363 815.359C528.832 815.348 528.901 821.087 525.384 825.936C518.588 825.925 518.37 819.868 521.363 815.359Z"/><path fill="#17D2F3" transform="scale(4 4)" d="M337.933 813.834C340.502 813.773 343.759 813.327 345.745 814.576C345.682 814.409 347.165 824.982 347.156 825.206C344.066 827.737 342.035 827.123 337.999 826.986L337.933 813.834Z"/><path fill="#081321" transform="scale(4 4)" d="M339.642 820.443C342.099 820.332 343.53 819.941 345.333 821.722C345.715 823.41 345.44 823.889 344.975 825.538C343.14 825.734 341.704 826.163 340.196 825.264C339.257 823.905 339.589 822.209 339.642 820.443Z"/><path fill="#081321" transform="scale(4 4)" d="M339.655 815.018C341.403 815.02 342.871 814.833 344.423 815.56C345.411 817.239 345.088 816.834 345.089 819.083C343.259 819.16 342.099 819.335 340.323 818.831C339.295 817.273 339.668 817.278 339.655 815.018Z"/><path fill="#FDFDFD" transform="scale(4 4)" d="M218.979 784.991C227.646 784.6 228.248 792.519 223.445 798.024C214.708 798.774 214.04 790.375 218.979 784.991Z"/><path fill="#081321" transform="scale(4 4)" d="M220.481 785.768C226.441 787.754 226.627 793.958 221.721 797.217C215.546 794.897 216.032 789.69 220.481 785.768Z"/><path fill="#024A71" transform="scale(4 4)" d="M615.485 750.515C631.937 749.982 649.187 750.654 665.723 750.485C668.793 750.454 684.219 750.38 685.902 750.758C677.094 752.637 657.063 751.986 647.183 752.069C640.316 752.126 626.076 752.446 619.493 751.934L618.995 751.145L615.485 750.515Z"/><path fill="#087CF6" transform="scale(4 4)" d="M718 693.196C721.077 692.982 732.884 692.392 735.302 694.089L734.838 694.762C732.74 695.729 730.88 695.486 728.526 695.485L728.482 708.25C728.528 711.451 728.831 712.047 727.386 714.813L726.635 714.973C724.891 711.421 725.328 699.894 725.328 695.449C721.634 695.819 719.731 696.821 718 693.196Z"/><defs><linearGradient id="gradient_3" gradientUnits="userSpaceOnUse" x1="646.01263" y1="692.43585" x2="658.28503" y2="708.22687"><stop offset="0" stop-color="#0DAFF1"/><stop offset="1" stop-color="#089DFF"/></linearGradient></defs><path fill="url(#gradient_3)" transform="scale(4 4)" d="M642.966 692.736C647.34 693.757 649.679 699.627 651.698 703.313C653.471 699.723 655.135 696.039 658.55 693.842L659.061 694.328C658.746 696.906 656.944 699.317 655.547 701.631C652.587 707.571 653.297 710.416 651.532 714.016C650.166 712.969 650.305 708.22 649.474 706.092C647.68 701.498 645.101 697.276 642.966 692.736Z"/><path fill="#17D2F3" transform="scale(4 4)" d="M426.36 693.169C430.616 692.849 437.586 692.605 441.558 694.12L441.475 694.698C439.274 695.713 437.852 695.517 435.423 695.541L435.389 711.125C435.316 712.269 435.194 712.608 434.943 713.736L434.01 714.139L434.624 714.333L434.517 714.507L433.894 714.633C432.386 711.717 432.584 699.372 432.522 695.485C430.233 695.483 427.834 695.741 425.805 694.851L425.584 694.042L426.36 693.169Z"/><path fill="#17D2F3" transform="scale(4 4)" d="M714.073 785.015C716.641 784.978 719.723 784.811 722.133 785.504C723.535 787.411 720.532 792.121 722.529 795.749C722.878 796.384 722.96 795.929 722.508 797.364L721.694 796.831C720.898 795.052 720.382 793.582 718.527 792.861C716.963 793.106 716.462 793.891 715.289 795.034L714.803 795.514L714.314 795.151C713.959 791.903 714.069 788.303 714.073 785.015Z"/><path fill="#081321" transform="scale(4 4)" d="M715.959 786.448C718.063 786.413 719.33 786.158 721.136 787.056C722.214 788.797 721.874 788.292 721.906 790.646C720.388 791.078 718.048 791.587 716.649 790.788C715.573 788.908 715.963 788.972 715.959 786.448Z"/><path fill="#17D2F3" transform="scale(4 4)" d="M628.954 784.975C630.532 784.929 632.111 785.016 633.675 785.236C635.33 785.452 636.649 785.661 637.659 787.016C637.892 788.681 636.672 790.326 635.802 791.892C635.468 794.809 638.408 795.321 637.325 798.077C636.07 796.234 634.717 793.88 632.987 792.603C631.128 793.351 631.192 794.433 629.405 796.286C628.828 794.893 628.97 787.001 628.954 784.975Z"/><path fill="#081321" transform="scale(4 4)" d="M630.546 786.17C632.799 786.357 633.314 786.285 635.327 787.171C636.615 788.906 636.22 787.932 636.316 790.281C634.436 790.999 632.984 791.4 631.207 790.671C630.188 789.21 630.479 788.004 630.546 786.17Z"/><path fill="#FDFDFD" transform="scale(4 4)" d="M399.517 785.048C402.448 784.981 406.334 784.416 407.772 787.388C407.376 789.272 406.95 790.232 406.326 791.775C406.007 792.56 408.186 796.05 407.592 797.432L406.734 796.813C405.615 794.572 405.353 793.627 403.131 792.729C400.772 793.679 401.367 795.117 399.846 795.803C399.398 792.606 399.52 788.358 399.517 785.048Z"/><path fill="#081321" transform="scale(4 4)" d="M400.939 786.391C402.812 786.375 404.142 786.155 405.777 787.012C406.778 788.312 406.583 789.029 406.568 790.691C404.933 791.008 403.05 791.481 401.651 790.71C400.659 789.44 400.928 788.091 400.939 786.391Z"/><path fill="#17D2F3" transform="scale(4 4)" d="M549.32 784.973C552.821 784.912 558.629 785.003 558.149 789.966C556.971 791.661 556.824 791.68 554.981 792.729C553.763 792.837 553.273 792.914 552.078 793.174C551.165 794.547 551.082 794.691 549.915 795.837C549.201 794.519 549.345 787.007 549.32 784.973Z"/><path fill="#081321" transform="scale(4 4)" d="M551.082 786.333C552.999 786.457 554.335 786.293 555.892 787.378C556.743 789.271 556.519 788.572 556.113 790.937C554.394 791.274 553.094 791.797 551.606 791.051C550.714 789.667 551.026 788.073 551.082 786.333Z"/><path fill="#17D2F3" transform="scale(4 4)" d="M586.74 784.785C588.644 786.094 589.937 792.092 590.628 794.535C591.735 790.383 592.325 788.048 594.042 784.165C595.269 787.404 596.483 791.403 597.57 794.723C598.126 792.107 598.89 788.047 600.427 785.97C600.987 787.4 600.7 787.36 600.398 789.12C599.609 792.753 598.735 795.714 597.667 799.281C596.347 795.767 595.139 791.774 593.969 788.17C592.785 791.668 591.676 795.499 590.528 799.059C589.42 795.777 586.506 787.902 586.74 784.785Z"/><path fill="#27C2F8" transform="scale(4 4)" d="M633.317 813.362C634.653 814.703 634.393 823.636 633.279 825.313C632.526 822.925 632.55 820.487 632.41 817.965L628.369 825.53C627.065 823.343 626.117 821.118 624.623 818.697L623.997 819.079C624.026 821.594 624.052 822.176 623.443 824.594L622.959 824.181C622.181 819.271 622.362 817.08 622.601 812.039C624.634 815.004 626.744 819.274 628.476 822.544C630.093 818.719 631.137 816.944 633.317 813.362Z"/><path fill="#17D2F3" transform="scale(4 4)" d="M465.059 692.715C466.415 693.191 465.956 692.956 467.079 693.864C468.644 697.817 467.9 710.053 467.796 714.985C466.453 714.798 466.97 714.94 465.768 714.115C464.236 710.68 464.967 697.375 465.059 692.715Z"/><path fill="#FDFDFD" transform="scale(4 4)" d="M450.059 813.792C451.511 815.273 452.898 821.898 453.716 824.55C454.451 821.672 455.302 817.674 456.894 815.25C457.654 817.57 455.558 823.574 454.218 825.652L453.425 825.816C452.245 824.733 451.077 820.235 450.382 818.289L449.726 818.258C448.617 822.132 447.867 824.496 446.346 828.206C445.423 825.238 443.2 818.454 443.675 815.394C445.146 818.543 445.794 821.849 446.615 825.23C447.549 821.409 448.335 817.287 450.059 813.792Z"/><path fill="#17D2F3" transform="scale(4 4)" d="M514.063 750.744C517.194 746.69 520.096 745.278 523.421 750.204L523.915 751.334C525.336 751.606 526.261 751.704 527.684 751.85C520.99 751.635 520.016 757.797 514.603 752.325L514.063 750.744Z"/><path fill="#17D2F3" transform="scale(4 4)" d="M800.227 784.733C802.989 786.787 806.045 792.353 807.959 795.441C807.914 793.021 807.596 789.025 808.688 787.026C810.244 788.995 809.629 795.847 808.957 798.28C805.831 796.254 803.271 790.928 801.386 787.533C801.46 790.461 801.53 792.392 801.224 795.346L800.374 795.64L800.469 796.141L801.065 796.129L800.547 796.455L800.821 796.695L800.395 796.272C799.489 791.498 799.726 789.444 800.227 784.733Z"/><path fill="#FDFDFD" transform="scale(4 4)" d="M257.048 784.785C259.579 786.053 263.305 792.739 265.02 795.49C265.013 793.232 265.037 791.504 265.218 789.256L265.256 789.543L265.985 788.037L265.728 787.399C267.066 789.239 266.527 795.853 266.444 798.268C263.271 796.454 260.322 790.859 258.304 787.541C258.355 789.724 258.912 793.211 257.42 794.63L257.431 794.813L258.03 795.247L257.874 795.656L257.523 795.557C256.486 791.407 256.817 789.007 257.048 784.785Z"/><path fill="#17D2F3" transform="scale(4 4)" d="M678.363 813.972C680.3 813.947 682.314 813.773 683.714 815.328C681.861 815.561 678.224 815.595 677.308 817.191C679.137 820.233 685.296 820.089 684.813 824.54C683.753 826.258 683.597 826.276 681.804 827.339C679.137 827.292 678.716 827.322 676.372 826.101C676.78 825.105 680.345 825.665 682.78 824.39L682.965 823.531C681.106 820.62 676.167 821.255 675.457 817.015C676.224 815.186 676.716 815.052 678.363 813.972Z"/><path fill="#17D2F3" transform="scale(4 4)" d="M822.336 784.986C822.78 784.977 823.224 784.975 823.668 784.979C825.765 785.004 826.811 785.053 828.315 786.6L827.972 787.162C825.88 786.771 825.248 786.573 823.166 786.703C819.565 788.937 820.02 799.534 827.016 796.024C828.036 794.668 827.88 795.379 827.746 793.887C827 793.159 826.899 793.006 826.299 792.145L826.771 791.477C829.086 791.925 830.236 793.414 829.751 795.773C823.255 803.459 814.582 792.436 822.336 784.986Z"/><path fill="#FDFDFD" transform="scale(4 4)" d="M236.627 784.683C239.243 786.473 242.973 792.507 244.935 795.406C244.91 792.587 244.739 790.529 245.422 787.78L245.814 788.118C246.529 791.51 246.254 794.351 246.119 797.807L245.127 797.636C242.557 794.795 240.243 791.135 238.078 787.922C238.06 790.345 238.218 792.764 237.462 795.039L236.99 794.567C236.163 791.249 236.49 788.105 236.627 784.683Z"/><path fill="#17D2F3" transform="scale(4 4)" d="M696.076 785.141C699.178 784.934 700.65 784.71 703.572 785.72C702.969 786.423 699.959 786.423 698.708 786.535C697.492 787.606 697.895 787.445 697.714 789.672C698.624 790.818 699.901 790.963 701.525 791.537L700.945 792.1C699.491 792.181 698.91 792.273 697.521 792.701C697.643 794.131 697.592 795.145 698.289 796.391C700.404 796.433 701.408 796.469 703.485 796.78L703.856 797.39C702.356 798.282 698.156 797.927 696.019 797.938C695.981 793.672 696 789.406 696.076 785.141Z"/><path fill="#17D2F3" transform="scale(4 4)" d="M358.239 813.672C361.4 815.912 357.531 821.838 361.529 825.668C363.408 826.089 362.582 826.224 364.123 825.635C366.502 822.675 365.916 818.893 366.531 815.05L367.294 814.841L367.736 816.126C367.762 820.322 368.334 826.277 362.957 827.329C356.712 826.201 357.675 818.309 358.239 813.672Z"/><path fill="#FDFDFD" transform="scale(4 4)" d="M486.105 785.237C488.691 786.467 492.22 793.071 493.925 795.865C493.914 794.601 493.879 787.932 494.539 787.319C495.317 791.716 495.175 793.847 495.047 798.374C492.524 797.258 488.81 790.49 487.132 787.774C487.124 790.226 487.091 792.42 486.957 794.884L486.333 795.481L486.56 796.424L486.798 795.871C486.738 796.053 486.677 796.236 486.617 796.419C485.476 794.568 485.996 787.551 486.105 785.237Z"/><path fill="#17D2F3" transform="scale(4 4)" d="M610.424 785.066C612.235 785.02 617.402 784.785 618.713 785.622L618.439 786.029C616.448 786.332 614.454 786.619 612.458 786.89C611.626 787.846 611.953 787.278 612.026 789.028C612.991 790.726 614.181 790.93 615.971 791.548C614.541 791.544 615.165 791.337 614.026 792.16C613.322 792.067 612.652 792.151 611.923 792.186C611.927 794.244 611.64 795.307 612.848 796.734C615.55 796.576 616.159 796.303 618.505 797.393L618.313 797.838C615.666 798.349 613.167 798.18 610.465 798.144L610.424 785.066Z"/><path fill="#FDFDFD" transform="scale(4 4)" d="M508.514 785.018C509.736 784.969 510.805 785.01 512.024 785.04C513.487 785.835 513.673 785.789 514.579 787.22L514.222 787.852C512.399 786.91 512.031 786.585 510.052 786.378C509.3 786.662 508.985 786.737 508.402 787.354C507.108 788.729 506.462 790.588 506.623 792.469C506.774 794.414 507.502 795.058 508.808 796.201C511.316 796.905 512.989 796.466 513.816 793.784C512.143 792.687 512.294 793.272 511.975 791.984L512.797 791.808C514.476 792.659 514.377 792.565 515.408 794.138C515.259 798.816 504.584 800.724 505.551 792.219C505.988 788.383 505.539 788.102 508.514 785.018Z"/><path fill="#17D2F3" transform="scale(4 4)" d="M659.979 785.068C662.939 784.995 664.301 785.119 667.191 785.434C665.62 786.196 663.766 786.073 661.969 787.116C661.51 788.779 661.384 788.725 661.856 790.344C663.373 790.55 664.196 790.572 665.61 791.215C664.039 791.77 663.173 792.098 661.679 792.824L660.95 795.258L661.811 796.401C664.392 797.032 665.072 796.525 667.737 797.67C664.983 798.132 662.793 798.021 660.019 798.003L659.979 785.068Z"/><path fill="#17D2F3" transform="scale(4 4)" d="M767.959 785.164C770.161 786.883 769.308 792.225 773.062 791.617C775.451 789.9 776.092 787.27 776.943 784.598C777.054 788.765 777.028 793.089 777.061 797.271L776.329 797.271C775.105 795.615 776.227 794.667 775.219 792.431C773.206 791.238 774.223 791.417 772.144 791.531C770.228 792.633 769.655 793.979 768.471 795.867C767.502 794.695 767.895 787.03 767.959 785.164Z"/><path fill="#FDFDFD" transform="scale(4 4)" d="M277.19 785.044C280.116 784.997 281.949 784.789 284.628 785.884C282.714 786.587 281.403 786.199 279.124 786.65C278.476 788.527 278.603 787.56 278.956 789.681C280.112 791.185 280.791 791.18 282.518 791.66L281.391 791.679C280.475 792.537 280.308 792.228 278.641 792.277C278.683 793.432 278.778 794.64 278.849 795.799C280.229 797.5 281.354 796.158 283.982 797.385C281.531 798.239 279.868 798.031 277.277 798.006C277.104 793.846 277.195 789.241 277.19 785.044Z"/><path fill="#FDFDFD" transform="scale(4 4)" d="M539.84 814.239C542.594 816.936 539.013 822.085 542.966 825.775C544.485 826.107 544.428 826.215 545.848 825.663C548.234 822.851 547.794 818.927 548.291 815.18L548.831 814.834L549.358 815.596C549.375 819.057 549.353 832.099 540.941 825.107C538.761 823.295 539.466 817.067 539.84 814.239Z"/><path fill="#FDFDFD" transform="scale(4 4)" d="M381.062 785.049C383.854 784.96 385.052 785.111 387.782 785.445C385.009 786.471 382.338 786.94 382.562 790.316L387.024 791.607L386.807 791.869L382.519 792.236L382.596 795.861C383.382 797.015 385.306 796.576 387.707 797.384C386.53 798.335 383.063 797.955 381.129 797.966C381.027 793.733 381.079 789.301 381.062 785.049Z"/><path fill="#FDFDFD" transform="scale(4 4)" d="M297.798 785.009C300.378 784.884 303.383 784.473 304.212 787.57C301.47 787.151 298.03 786.291 296.111 788.772C295.199 792.445 297.104 796.255 300.956 797.245C301.999 796.15 302.185 795.918 303.449 795.001L304.103 795.297C302.582 802.621 289.441 796.737 297.798 785.009Z"/><path fill="#17D2F3" transform="scale(4 4)" d="M681.909 795.475C683.104 792.429 684.384 788.548 686.036 785.844L686.82 785.94L686.668 787.128C685.083 791.543 683.861 794.829 681.649 798.934C679.699 794.475 677.934 790.049 676.925 785.281C679.407 786.662 680.895 792.574 681.909 795.475Z"/><path fill="#FDFDFD" transform="scale(4 4)" d="M498.523 814.325L499.18 815.009C499.529 817.072 500.619 820.969 503.429 820.616C506.186 818.708 506.671 816.69 507.722 813.657L507.74 826.242L506.988 826.148C505.971 824.485 506.804 824.237 506.372 821.681C502.498 818.786 500.426 821.387 498.807 824.655L498.544 823.968L498.825 824.514L499.448 823.229L498.482 822.61C498.378 819.55 498.368 817.388 498.523 814.325Z"/><path fill="#FDFDFD" transform="scale(4 4)" d="M454.07 785.335L454.795 786.109C454.969 788.551 455.511 791.552 458.466 791.781C460.818 790.659 461.926 787.997 462.973 785.762C463.037 789.182 463.433 795.175 462.26 798.186C460.887 795.42 462.3 793.875 460.622 792.254C458.744 791.905 458.633 791.742 456.773 792.33C455.298 793.425 455.217 793.914 454.459 795.571L454.219 796.107C453.572 793.939 453.775 787.707 454.07 785.335Z"/><path fill="#FDFDFD" transform="scale(4 4)" d="M199.895 784.889C202.124 784.969 204.294 785.089 205.672 787.07L205.505 787.995C202.532 788.515 201.966 785.706 199.287 786.931C198.165 789.201 198.259 792.038 198.706 794.562C198.925 795.797 200.896 796.747 202.044 797.397C203.385 796.419 203.836 795.953 205.465 795.526L205.857 796.051C204.886 797.586 204.731 797.519 203.158 798.345C195.396 798.771 195.742 789.513 199.895 784.889Z"/><path fill="#FDFDFD" transform="scale(4 4)" d="M344.978 785.145C346.225 785.14 349.619 784.99 350.38 785.744C348.511 786.467 347.821 786.375 346.724 787.692C346.422 789.943 346.211 788.983 346.907 790.806L349.634 791.207L349.778 791.849C346.092 792.997 346.566 792.705 346.248 796.315C347.301 796.872 350.39 797.051 351.973 797.437L352.184 797.83C349.715 798.12 347.462 798.09 344.984 798.117L344.978 785.145Z"/><path fill="#FDFDFD" transform="scale(4 4)" d="M361.796 785.267C363.765 786.275 365.779 793.003 366.698 795.458C367.894 792.357 369.043 789.038 370.671 786.158L371.228 786.115L370.978 787.593C369.491 791.724 368.408 794.878 366.384 798.808C364.718 794.503 362.749 789.733 361.796 785.267Z"/><path fill="#17D2F3" transform="scale(4 4)" d="M392.189 814.287L392.899 814.672C394.455 816.756 393.98 822.654 393.947 825.42C396.756 825.395 398.431 824.971 400.249 826.622C397.763 827.211 394.69 827.033 392.079 827.026C392.01 822.657 391.929 818.667 392.189 814.287Z"/><path fill="#17D2F3" transform="scale(4 4)" d="M591.845 814.128L592.734 814.76C593.715 816.798 593.403 822.931 593.362 825.445C595.67 825.384 597.037 825.238 599.334 825.742L599.833 826.783C597.761 827.003 593.809 826.961 591.577 826.996C591.521 823.266 591.304 817.647 591.845 814.128Z"/><path fill="#17D2F3" transform="scale(4 4)" d="M656.531 814.237C658.381 813.93 664.166 813.611 665.788 814.461C665.285 815.238 663.937 815.471 662.827 815.878C662.38 817.211 662.548 821.487 662.554 823.125C662.599 824.535 662.709 824.585 662.182 825.857L661.361 825.783C660.836 824.55 660.866 820.852 660.927 819.382C661.167 813.547 659.479 817.149 656.531 814.237Z"/><path fill="#17D2F3" transform="scale(4 4)" d="M731.753 785.172C734.09 785.768 735.398 789.244 736.518 791.326C737.377 789.466 738.11 787.341 739.913 786.396C740.159 787.674 739.636 788.459 739.112 789.686C737.546 792.877 737.344 793.477 736.728 797.023C735.507 793.402 733.291 788.905 731.753 785.172Z"/><path fill="#17D2F3" transform="scale(4 4)" d="M748.77 785.218C751.119 784.973 753.446 784.499 755.348 785.581C755.403 785.882 754.494 793.875 754.563 796.08L754.036 797.251C751.55 795.954 754.494 790.609 752.056 786.903C750.587 786.29 750.11 786.004 748.77 785.218Z"/><path fill="#FDFDFD" transform="scale(4 4)" d="M417.733 785.354C419.618 786.761 420.695 789.279 421.826 791.391C423.645 788.26 424.554 786.91 426.788 784.062C425.865 786.648 425.085 788.343 423.928 790.785C422.462 793.711 422.335 795.63 421.839 798.859C421.681 797.259 421.523 795.368 421.064 793.834C420.255 791.131 417.861 788.109 417.733 785.354Z"/><path fill="#FDFDFD" transform="scale(4 4)" d="M479.634 814.235C480.246 814.195 480.858 814.159 481.471 814.126C483.182 814.041 484.786 813.676 485.797 814.589C484.331 818.56 484.18 819.335 484.391 823.607L484.448 824.625C484.413 825.565 484.527 825.069 483.965 826.074C481.903 825.32 483.788 817.908 482.537 815.551L480.31 815.191L479.634 814.235Z"/><path fill="#FDFDFD" transform="scale(4 4)" d="M435.231 785.246C437.562 785.115 440.874 784.899 443.033 785.611L442.942 786.236C441.619 786.422 441.626 786.393 440.418 786.938C439.851 788.779 440.132 793.435 440.179 795.625L440.047 796.902L439.495 797.164C438.414 793.951 439.555 788.879 438.376 786.684C436.986 786.584 436.776 786.591 435.451 786.214L435.231 785.246Z"/><path fill="#FDFDFD" transform="scale(4 4)" d="M559.516 814.218C561.221 814.017 566.171 813.392 567.209 814.623C566.586 815.263 565.957 815.897 565.321 816.524C564.392 819.009 564.797 821.887 564.914 824.625L564.803 825.588C563.027 825.003 563.906 818.195 563.312 816.732C562.348 814.36 561.618 816.808 559.516 814.218Z"/><path fill="#FDFDFD" transform="scale(4 4)" d="M313.896 785.223C315.597 785.078 318.411 784.588 319.831 785.255C320.126 786.945 319.097 788.652 319 790.493C318.901 792.383 318.95 794.185 319.019 796.069C318.949 796.386 318.709 796.639 318.537 796.913C317.16 795.119 318.355 788.389 317.049 786.482C316.783 786.093 315.719 786.885 313.896 785.223Z"/><path fill="#17D2F3" transform="scale(4 4)" d="M609.766 814.123C612.837 816.021 611.52 823.468 611.264 826.957C608.756 825.028 609.664 817.386 609.766 814.123Z"/><path fill="#17D2F3" transform="scale(4 4)" d="M646.025 813.844L646.848 815.008C647.213 818.306 647.407 823.494 646.553 826.7C644.616 824.885 645.128 816.271 646.025 813.844Z"/><path fill="#17D2F3" transform="scale(4 4)" d="M788.025 785.195C788.831 785.689 788.595 785.556 789.225 786.321C789.707 790.049 789.512 794.03 789.053 797.757C788.76 797.536 788.331 797.014 788.063 796.719C787.428 792.707 787.649 789.208 788.025 785.195Z"/><path fill="#17D2F3" transform="scale(4 4)" d="M379.516 814.329L380.353 815.308C380.92 819.162 380.633 823.102 380.247 826.964C379.687 826.489 379.632 826.317 379.188 825.72C378.758 822.441 378.513 817.498 379.516 814.329Z"/><path fill="#FDFDFD" transform="scale(4 4)" d="M467.955 814.236C468.239 814.456 468.626 814.971 468.877 815.271C469.336 819.106 469.128 823.206 468.754 827.047C466.8 824.234 467.583 817.784 467.955 814.236Z"/><path fill="#FDFDFD" transform="scale(4 4)" d="M473.782 785.206C474.089 785.439 474.516 785.972 474.793 786.284C475.284 790.091 475.143 793.991 474.655 797.791C472.856 795.484 473.648 788.301 473.782 785.206Z"/></svg>