<svg width="1254" height="1254" viewBox="0 0 1254 1254" fill="none" xmlns="http://www.w3.org/2000/svg">
<g clip-path="url(#clip0_2_2)">
<path d="M0 0H1254V1254H0V0Z" fill="#010721"/>
<path d="M513.118 453.92C524.691 445.708 542.782 435.605 555.395 428.442C578.721 415.196 602.046 394.835 630.374 399.862C636.681 400.989 642.779 403.039 648.486 405.949C656.005 409.855 664.883 415.424 672.353 419.83L714.174 444.484L846.199 522.774L941.559 579.402C958.802 589.604 983.423 603.233 999.042 614.521C1016.6 627.208 1031.86 642.81 1044.15 660.646C1052.67 672.923 1059.76 686.13 1065.28 700.017C1083.3 744.042 1080.12 776.366 1080.27 822.521C1080.34 845.097 1081.32 867.477 1077.12 889.764C1068.71 935.895 1042.19 976.736 1003.46 1003.18C981.01 1018.4 953.414 1034.55 930.011 1048.94L795.384 1131.26L732.029 1170.08C715.607 1180.2 699.007 1191.81 681.109 1198.63C658.283 1207.39 633.46 1209.56 609.453 1204.92C596.631 1202.45 584.242 1198.11 572.684 1192.04C554.495 1182.51 528.295 1165.39 510.083 1154.37L384.004 1077.93L276.871 1012.59C262.84 1004 237.601 989.778 225.272 980.771C215.144 973.271 206.363 964.104 199.302 953.665C186.692 934.842 181.103 913.087 185.719 890.671C189.909 870.287 201.989 852.383 219.324 840.866C237.454 828.987 260.217 826.36 281.083 830.904C302.361 835.539 325.659 851.838 344.688 863.374L384.679 887.425L546.323 985.351L573.577 1001.93C590.583 1012.27 603.999 1021.4 624.539 1023.94C639.118 1025.82 653.935 1023.96 667.602 1018.54C679.842 1013.78 691.274 1005.98 702.528 999.061L745.383 972.726L819.429 927.544C829.881 921.157 840.792 914.961 851.012 908.262C911.207 868.811 923.576 781.858 885.117 723.499C877.996 712.502 869.069 702.797 858.708 694.776C850.277 688.365 835.888 680.313 826.318 674.588L774.682 643.526L581.577 528.326L533.958 500.051C531.094 498.339 516.963 490.191 515.486 488.934C512.282 487.407 509.253 485.536 506.452 483.354C503.371 481.297 502.307 478.32 500.912 475.056C499.402 463.971 503.78 458.731 513.118 453.92Z" fill="url(#paint0_linear_2_2)"/>
<path d="M500.912 475.056C499.402 463.971 503.78 458.731 513.118 453.92C511.67 456.121 511.03 456.504 508.861 458.051C507.463 462.068 511.104 464.168 506.746 469.501C504.178 472.643 503.646 472.643 500.912 475.056Z" fill="#1AC9FA"/>
<path d="M506.452 483.354C512.255 480.954 514.049 482.071 515.761 488.405L515.486 488.934C512.282 487.407 509.253 485.536 506.452 483.354Z" fill="#1AC9FA"/>
<path d="M918.941 364.131C912.199 360.812 900.216 353.044 893.451 348.941L850.687 323.16L723.218 245.799C707.028 235.966 671.251 212.542 654.603 207.367C632.505 200.708 608.653 203.182 588.388 214.237C579.186 219.199 565.462 228.554 556.131 234.45L492.106 274.879L430.443 313.502C414.708 323.317 394.929 334.372 381.847 347.014C365.027 363.43 352.772 383.942 346.286 406.532C334.355 447.159 341.622 491.757 368.09 525.357C385.794 547.831 404.284 556.763 428.216 570.928L490.408 607.681C559.423 648.467 629.535 689.265 697.942 730.957L728.196 749.314C738.899 755.762 757.929 764.242 753.19 780.15C751.175 786.897 745.101 790.522 739.346 793.841C719.274 805.426 699.197 817.139 679.009 828.528C666.151 836.133 645.773 838.239 631.531 832.998C616.083 827.322 598.025 815.088 583.493 806.65C543.58 783.383 503.79 759.901 464.127 736.205L326.33 654.333C317.793 649.245 309.132 644.249 300.63 639.032C283.97 628.77 266.147 619.689 250.911 607.352C206.895 571.716 177.313 517.284 173.976 460.493C172.983 443.595 173.753 426.426 173.484 409.484C173.045 381.945 173.446 356.659 181.594 329.966C190.775 299.486 207.672 271.891 230.647 249.856C249.197 232.216 278.651 215.744 301.067 201.71L415.46 130.839L513.695 70.314C527.991 61.4907 549.481 47.1348 563.767 39.5714C596.14 22.51 633.974 19.0433 668.912 29.9377C688.53 36.1087 701.928 45.3736 719.268 55.85L759.092 79.9088L873.091 148.704L979.834 212.912L1014.37 233.774C1034.59 246.069 1053.62 257.886 1065.02 279.824C1102.17 339.202 1055.67 415.703 983.631 398.618C977.459 397.099 971.458 394.946 965.727 392.194C961.128 389.974 920.104 365.753 918.941 364.131Z" fill="url(#paint1_linear_2_2)"/>
<path d="M1065.02 279.824C1102.17 339.202 1055.67 415.703 983.631 398.618C977.459 397.099 971.458 394.946 965.727 392.194C961.129 389.974 920.104 365.753 918.941 364.131L919.7 363.434C920.698 364.201 921.121 364.435 922.217 365.042C943.941 377.073 963.29 393.663 988.284 398.338L988.627 397.82L986.754 396.404C981.42 386.937 1000.44 379.078 1007.38 378.196C1008.93 378 1012.8 380.245 1013.9 379.162C1020.48 372.704 1020.17 373.199 1027.64 378.616C1028.98 379.547 1037.95 377.953 1041.79 377.856C1044.41 380.362 1046.14 383.609 1049.75 383.333C1052.44 381.596 1058.91 374.503 1060.97 371.803C1076.85 351.051 1080.55 323.471 1072.73 298.78C1071.04 293.479 1065.38 284.715 1065.02 279.824Z" fill="#006AFE"/>
<path d="M1057.92 360.923C1059.89 360.766 1060.05 361.055 1062.02 361.672C1064.95 365.031 1061.04 368.179 1058.57 370.536C1056.08 367.844 1053.23 367.835 1054.16 363.767C1055.75 362.04 1055.69 361.925 1057.92 360.923Z" fill="#006AFE"/>
</g>
<defs>
<linearGradient id="paint0_linear_2_2" x1="865.499" y1="1112.21" x2="407.088" y2="538.713" gradientUnits="userSpaceOnUse">
<stop stop-color="#0057FF"/>
<stop offset="1" stop-color="#15C9FD"/>
</linearGradient>
<linearGradient id="paint1_linear_2_2" x1="882.019" y1="620.314" x2="306.771" y2="154.679" gradientUnits="userSpaceOnUse">
<stop stop-color="#0086FE"/>
<stop offset="1" stop-color="#28E3FB"/>
</linearGradient>
<clipPath id="clip0_2_2">
<rect width="1254" height="1254" fill="white"/>
</clipPath>
</defs>
</svg>
